<svg width="143" height="85" viewBox="0 0 143 85" fill="none" xmlns="http://www.w3.org/2000/svg">
<path d="M0.22 67V2.92C0.22 2.2 0.31 1.72 0.49 1.48C0.73 1.18 1.15 0.999997 1.75 0.939998C2.35 0.879998 3.19 0.849999 4.27 0.849999V25.06C6.13 23.62 8.11 22.6 10.21 22C12.31 21.4 14.29 21.1 16.15 21.1C19.09 21.1 21.34 21.61 22.9 22.63C24.46 23.59 25.51 24.97 26.05 26.77C26.59 28.57 26.86 30.73 26.86 33.25V65.92C26.86 66.28 26.77 66.55 26.59 66.73C26.47 66.85 26.11 66.94 25.51 67C24.97 67 24.04 67 22.72 67V33.97C22.72 31.27 22.21 29.11 21.19 27.49C20.23 25.81 18.13 24.97 14.89 24.97C13.33 24.97 11.56 25.27 9.58 25.87C7.66 26.41 5.89 27.46 4.27 29.02V65.92C4.27 66.28 4.21 66.55 4.09 66.73C3.97 66.85 3.64 66.94 3.1 67C2.56 67 1.6 67 0.22 67ZM42.5298 67.9C40.4298 67.9 38.5098 67.63 36.7698 67.09C35.0298 66.55 33.5298 65.5 32.2698 63.94C31.0698 62.32 30.1398 59.98 29.4798 56.92C28.8198 53.8 28.4898 49.69 28.4898 44.59C28.4898 36.25 29.8398 30.25 32.5398 26.59C35.2398 22.93 38.8998 21.1 43.5198 21.1C46.6398 21.1 49.2198 21.79 51.2598 23.17C53.2998 24.49 54.8298 26.86 55.8498 30.28C56.8698 33.64 57.3798 38.38 57.3798 44.5C57.3798 52.54 56.0898 58.45 53.5098 62.23C50.9898 66.01 47.3298 67.9 42.5298 67.9ZM42.6198 64.3C44.7798 64.3 46.6398 63.61 48.1998 62.23C49.7598 60.85 50.9598 58.72 51.7998 55.84C52.6998 52.9 53.1498 49.06 53.1498 44.32C53.1498 38.98 52.7598 34.9 51.9798 32.08C51.1998 29.26 50.0898 27.34 48.6498 26.32C47.2098 25.24 45.4398 24.7 43.3398 24.7C41.2398 24.7 39.3798 25.33 37.7598 26.59C36.1998 27.85 34.9698 29.95 34.0698 32.89C33.2298 35.83 32.8098 39.88 32.8098 45.04C32.8098 49 33.0198 52.24 33.4398 54.76C33.9198 57.28 34.5498 59.23 35.3298 60.61C36.1698 61.99 37.2198 62.95 38.4798 63.49C39.7398 64.03 41.1198 64.3 42.6198 64.3ZM61.214 84.73C60.614 84.73 60.134 84.58 59.774 84.28C59.474 84.04 59.324 83.62 59.324 83.02V24.79C61.244 23.53 63.254 22.6 65.354 22C67.514 21.4 69.824 21.1 72.284 21.1C75.344 21.1 77.984 21.67 80.204 22.81C82.484 23.95 84.194 25.93 85.334 28.75C86.534 31.51 87.134 35.35 87.134 40.27C87.134 45.13 86.774 49.21 86.054 52.51C85.394 55.81 84.494 58.48 83.354 60.52C82.274 62.56 81.044 64.12 79.664 65.2C78.284 66.22 76.904 66.91 75.524 67.27C74.204 67.69 72.974 67.9 71.834 67.9C69.854 67.9 68.114 67.54 66.614 66.82C65.114 66.04 64.034 65.23 63.374 64.39V84.37C63.014 84.49 62.654 84.58 62.294 84.64C61.934 84.7 61.574 84.73 61.214 84.73ZM70.934 64.12C71.894 64.12 73.034 63.88 74.354 63.4C75.734 62.92 77.054 61.93 78.314 60.43C79.634 58.93 80.714 56.68 81.554 53.68C82.394 50.62 82.814 46.48 82.814 41.26C82.814 36.88 82.394 33.52 81.554 31.18C80.774 28.78 79.574 27.13 77.954 26.23C76.394 25.27 74.414 24.79 72.014 24.79C68.774 24.79 65.894 25.6 63.374 27.22V59.53C64.274 61.09 65.414 62.26 66.794 63.04C68.174 63.76 69.554 64.12 70.934 64.12ZM102.802 67.9C100.702 67.9 98.7217 67.66 96.8617 67.18C95.0617 66.7 93.4717 65.74 92.0917 64.3C90.7717 62.86 89.7517 60.76 89.0317 58C88.3117 55.18 87.9517 51.52 87.9517 47.02C87.9517 41.2 88.4317 36.55 89.3917 33.07C90.3517 29.59 91.6117 27.01 93.1717 25.33C94.7917 23.59 96.5317 22.45 98.3917 21.91C100.312 21.37 102.202 21.1 104.062 21.1C108.022 21.1 110.872 22.39 112.612 24.97C114.412 27.49 115.312 30.94 115.312 35.32C115.312 37.12 115.252 38.95 115.132 40.81C115.072 42.61 114.892 44.26 114.592 45.76C112.072 46.24 109.432 46.6 106.672 46.84C103.912 47.08 101.302 47.23 98.8417 47.29C96.4417 47.35 94.4617 47.38 92.9017 47.38C91.4017 47.32 90.6517 47.29 90.6517 47.29V43.78C90.6517 43.78 91.3717 43.81 92.8117 43.87C94.2517 43.87 96.0217 43.84 98.1217 43.78C100.282 43.72 102.502 43.6 104.782 43.42C107.122 43.24 109.192 42.94 110.992 42.52C111.112 41.38 111.202 40.3 111.262 39.28C111.322 38.26 111.352 37.27 111.352 36.31C111.292 32.59 110.752 29.74 109.732 27.76C108.712 25.78 106.732 24.79 103.792 24.79C102.472 24.79 101.122 25.03 99.7417 25.51C98.4217 25.93 97.1617 26.89 95.9617 28.39C94.7617 29.83 93.8017 32.05 93.0817 35.05C92.4217 37.99 92.0917 42.01 92.0917 47.11C92.0917 50.83 92.3317 53.8 92.8117 56.02C93.3517 58.24 94.1317 59.92 95.1517 61.06C96.1717 62.2 97.3717 62.98 98.7517 63.4C100.132 63.76 101.662 63.94 103.342 63.94C105.442 63.94 107.452 63.67 109.372 63.13C111.352 62.59 113.032 61.81 114.412 60.79C114.592 61.27 114.712 61.78 114.772 62.32C114.892 62.86 114.952 63.31 114.952 63.67C114.952 64.27 114.382 64.9 113.242 65.56C112.102 66.22 110.602 66.76 108.742 67.18C106.942 67.66 104.962 67.9 102.802 67.9ZM130.153 67.9C128.053 67.9 126.073 67.66 124.213 67.18C122.413 66.7 120.823 65.74 119.443 64.3C118.123 62.86 117.103 60.76 116.383 58C115.663 55.18 115.303 51.52 115.303 47.02C115.303 41.2 115.783 36.55 116.743 33.07C117.703 29.59 118.963 27.01 120.523 25.33C122.143 23.59 123.883 22.45 125.743 21.91C127.663 21.37 129.553 21.1 131.413 21.1C135.373 21.1 138.223 22.39 139.963 24.97C141.763 27.49 142.663 30.94 142.663 35.32C142.663 37.12 142.603 38.95 142.483 40.81C142.423 42.61 142.243 44.26 141.943 45.76C139.423 46.24 136.783 46.6 134.023 46.84C131.263 47.08 128.653 47.23 126.193 47.29C123.793 47.35 121.813 47.38 120.253 47.38C118.753 47.32 118.003 47.29 118.003 47.29V43.78C118.003 43.78 118.723 43.81 120.163 43.87C121.603 43.87 123.373 43.84 125.473 43.78C127.633 43.72 129.853 43.6 132.133 43.42C134.473 43.24 136.543 42.94 138.343 42.52C138.463 41.38 138.553 40.3 138.613 39.28C138.673 38.26 138.703 37.27 138.703 36.31C138.643 32.59 138.103 29.74 137.083 27.76C136.063 25.78 134.083 24.79 131.143 24.79C129.823 24.79 128.473 25.03 127.093 25.51C125.773 25.93 124.513 26.89 123.313 28.39C122.113 29.83 121.153 32.05 120.433 35.05C119.773 37.99 119.443 42.01 119.443 47.11C119.443 50.83 119.683 53.8 120.163 56.02C120.703 58.24 121.483 59.92 122.503 61.06C123.523 62.2 124.723 62.98 126.103 63.4C127.483 63.76 129.013 63.94 130.693 63.94C132.793 63.94 134.803 63.67 136.723 63.13C138.703 62.59 140.383 61.81 141.763 60.79C141.943 61.27 142.063 61.78 142.123 62.32C142.243 62.86 142.303 63.31 142.303 63.67C142.303 64.27 141.733 64.9 140.593 65.56C139.453 66.22 137.953 66.76 136.093 67.18C134.293 67.66 132.313 67.9 130.153 67.9Z" fill="black"/>
</svg>
